<mxfile host="drawio-plugin" modified="2022-03-06T20:45:21.938Z" agent="5.0 (Windows NT 6.2; Win64; x64) AppleWebKit/537.36 (KHTML, like Gecko) Chrome/87.0.4280.141 Safari/537.36" etag="pd8q7qBmjltCE2KF8-wg" version="15.5.4" type="embed"><diagram id="R2lEEEUBdFMjLlhIrx00" name="Page-1"><mxGraphModel dx="899" dy="400" grid="1" gridSize="10" guides="1" tooltips="1" connect="1" arrows="1" fold="1" page="1" pageScale="1" pageWidth="850" pageHeight="1100" math="0" shadow="0" extFonts="Permanent Marker^https://fonts.googleapis.com/css?family=Permanent+Marker"><root><mxCell id="0"/><mxCell id="1" parent="0"/><mxCell id="wWqlGiYWKjNsTNU5to8U-2" value="Paragraphs" style="swimlane;fontStyle=0;childLayout=stackLayout;horizontal=1;startSize=26;horizontalStack=0;resizeParent=1;resizeParentMax=0;resizeLast=0;collapsible=1;marginBottom=0;align=center;fontSize=14;" parent="1" vertex="1"><mxGeometry x="40" y="320" width="160" height="188" as="geometry"/></mxCell><mxCell id="wWqlGiYWKjNsTNU5to8U-3" value="id" style="text;strokeColor=none;fillColor=none;spacingLeft=4;spacingRight=4;overflow=hidden;rotatable=0;points=[[0,0.5],[1,0.5]];portConstraint=eastwest;fontSize=12;" parent="wWqlGiYWKjNsTNU5to8U-2" vertex="1"><mxGeometry y="26" width="160" height="30" as="geometry"/></mxCell><mxCell id="wWqlGiYWKjNsTNU5to8U-4" value="timestamp" style="text;strokeColor=none;fillColor=none;spacingLeft=4;spacingRight=4;overflow=hidden;rotatable=0;points=[[0,0.5],[1,0.5]];portConstraint=eastwest;fontSize=12;" parent="wWqlGiYWKjNsTNU5to8U-2" vertex="1"><mxGeometry y="56" width="160" height="30" as="geometry"/></mxCell><mxCell id="wWqlGiYWKjNsTNU5to8U-5" value="author" style="text;strokeColor=none;fillColor=none;spacingLeft=4;spacingRight=4;overflow=hidden;rotatable=0;points=[[0,0.5],[1,0.5]];portConstraint=eastwest;fontSize=12;" parent="wWqlGiYWKjNsTNU5to8U-2" vertex="1"><mxGeometry y="86" width="160" height="34" as="geometry"/></mxCell><mxCell id="wWqlGiYWKjNsTNU5to8U-6" value="ordinal" style="text;strokeColor=none;fillColor=none;spacingLeft=4;spacingRight=4;overflow=hidden;rotatable=0;points=[[0,0.5],[1,0.5]];portConstraint=eastwest;fontSize=12;" parent="wWqlGiYWKjNsTNU5to8U-2" vertex="1"><mxGeometry y="120" width="160" height="34" as="geometry"/></mxCell><mxCell id="wWqlGiYWKjNsTNU5to8U-7" value="text" style="text;strokeColor=none;fillColor=none;spacingLeft=4;spacingRight=4;overflow=hidden;rotatable=0;points=[[0,0.5],[1,0.5]];portConstraint=eastwest;fontSize=12;" parent="wWqlGiYWKjNsTNU5to8U-2" vertex="1"><mxGeometry y="154" width="160" height="34" as="geometry"/></mxCell></root></mxGraphModel></diagram></mxfile>